# xmcd CD database file
#
# Track frame offsets:
#	150
#	19347
#	41465
#	74005
#	104542
#	136890
#	158410
#	180675
#	206407
#	227302
#	246592
#	292052
#	323325
#
# Disc length: 4676 seconds
#
# Revision: 0
# Processed by: cddbd v1.4PL0 Copyright (c) Steve Scherf et al.
# Submitted via: CDex 1.50beta10
#
DISCID=b312420d
DTITLE=Various Artist - Evergreens and Jazz Vol 2
DYEAR=2000
DGENRE=Jazz
TTITLE0=El Es Exaltado (He is Exalted)
TTITLE1=Shambalah
TTITLE2=Romeo and Alek Part II
TTITLE3=Inner Peace
TTITLE4=From Dusk to Dawn
TTITLE5=Social Climber
TTITLE6=Majletas
TTITLE7=Ga Mashashane
TTITLE8=Everblue
TTITLE9=Daydreamer
TTITLE10=Change of Mind
TTITLE11=Brother Ed
TTITLE12=Amaqwati
EXTD=YEAR: 2000
EXTT0=
EXTT1=
EXTT2=
EXTT3=
EXTT4=
EXTT5=
EXTT6=
EXTT7=
EXTT8=
EXTT9=
EXTT10=
EXTT11=
EXTT12=
PLAYORDER=
